<svg width="192" height="34" viewBox="0 0 192 34" fill="none" xmlns="http://www.w3.org/2000/svg">
<path d="M3.95312 4.07812C3.95312 3.78125 3.29688 3.46094 1.98438 3.11719C0.671875 2.75781 0.015625 2.44531 0.015625 2.17969C0.015625 0.757812 1.63281 0.046875 4.86719 0.046875L6.92969 0.09375C7.19531 0.09375 7.5625 0.296875 8.03125 0.703125C8.5 1.10938 8.85938 1.53125 9.10938 1.96875L21.4609 24.2109C23.8984 20.2578 27.8516 13.6719 33.3203 4.45312V4.47656C33.3984 4.33594 33.5781 3.98438 33.8594 3.42188C34.1562 2.85938 34.3906 2.44531 34.5625 2.17969C34.75 1.91406 35 1.58594 35.3125 1.19531C35.9219 0.460938 36.6719 0.09375 37.5625 0.09375L39.2734 0.0703125C42.1328 0.0703125 43.5625 0.773438 43.5625 2.17969C43.5625 2.66406 42.8906 2.98438 41.5469 3.14062C40.2031 3.28125 39.5312 3.59375 39.5312 4.07812V28.9688C39.5312 29.2656 39.8672 29.5156 40.5391 29.7188C41.2109 29.9062 41.8828 30.0859 42.5547 30.2578C43.2266 30.4297 43.5625 30.6406 43.5625 30.8906C43.5625 32.3125 42.0156 33.0234 38.9219 33.0234L37.0703 32.9766L35.125 33.0234C32.0625 33.0234 30.5312 32.3125 30.5312 30.8906C30.5312 30.5312 30.8594 30.2891 31.5156 30.1641C32.1719 30.0234 32.8203 29.8906 33.4609 29.7656C34.1172 29.625 34.4453 29.3594 34.4453 28.9688V8.0625C34.1484 8.57812 32.8047 11.0156 30.4141 15.375C26.3828 22.6875 23.6406 27.2031 22.1875 28.9219V28.8984C21.75 29.3359 21.3438 29.5547 20.9688 29.5547C20.5938 29.5547 20.2891 29.5234 20.0547 29.4609C19.8203 29.3828 19.6094 29.25 19.4219 29.0625C19.25 28.875 19.1172 28.7266 19.0234 28.6172C18.9297 28.4922 18.8047 28.2812 18.6484 27.9844C18.4922 27.6875 18.3828 27.4922 18.3203 27.3984L8.07812 10.5703V28.9688C8.07812 29.2656 8.41406 29.5156 9.08594 29.7188C9.75781 29.9062 10.4297 30.0859 11.1016 30.2578C11.7891 30.4141 12.1328 30.625 12.1328 30.8906C12.1328 32.2969 10.6797 33 7.77344 33L6.0625 32.9766L4.28125 33.0234C1.4375 33.0234 0.015625 32.3125 0.015625 30.8906C0.015625 30.5156 0.34375 30.2656 1 30.1406C1.65625 30.0156 2.3125 29.8906 2.96875 29.7656C3.625 29.625 3.95312 29.3594 3.95312 28.9688V4.07812Z" fill="#141414"/>
<path d="M51.1797 18.1406C50.6016 18.1406 49.9453 17.9141 49.2109 17.4609C48.4922 16.9922 48.1328 16.3906 48.1328 15.6562C48.1328 14.9062 48.3438 14.2031 48.7656 13.5469C49.1875 12.8906 49.7344 12.3594 50.4062 11.9531C51.0781 11.5312 51.8594 11.1797 52.75 10.8984C54.375 10.3828 56.125 10.125 58 10.125C61.1562 10.125 63.4453 10.8281 64.8672 12.2344C66.3047 13.625 67.0234 15.9297 67.0234 19.1484L67 26.0625C67 27.7344 67.2109 28.7812 67.6328 29.2031C67.7422 29.3125 68.0859 29.4531 68.6641 29.625C70.2578 30.125 71.0547 30.5078 71.0547 30.7734C71.0547 32.4141 69.375 33.2344 66.0156 33.2344C64.75 33.2344 63.9219 32.9531 63.5312 32.3906C63.1562 31.8281 62.9531 30.8047 62.9219 29.3203C62.2188 30.5859 61.1484 31.6094 59.7109 32.3906C58.2734 33.1719 56.7344 33.5625 55.0938 33.5625C53.4531 33.5625 52.0625 33.3516 50.9219 32.9297C49.7812 32.5078 48.8516 31.8281 48.1328 30.8906C47.4297 29.9375 47.0781 28.9141 47.0781 27.8203C47.0781 26.7266 47.2031 25.8516 47.4531 25.1953C47.7031 24.5234 48.0156 23.9609 48.3906 23.5078C48.7656 23.0547 49.2734 22.6484 49.9141 22.2891C50.5703 21.9297 51.1797 21.6484 51.7422 21.4453C52.3047 21.2266 53.0312 21.0312 53.9219 20.8594C55.2344 20.6094 56.3359 20.4375 57.2266 20.3438C58.1172 20.2344 58.5781 20.1719 58.6094 20.1562C58.7031 20.1406 59.2344 20.0859 60.2031 19.9922C61.1875 19.8828 61.9609 19.6719 62.5234 19.3594C62.5234 16.3906 62.125 14.4531 61.3281 13.5469C60.625 12.7656 59.4688 12.375 57.8594 12.375C56.25 12.375 55.0391 12.7891 54.2266 13.6172C53.4297 14.4297 53.0312 15.7266 53.0312 17.5078L53.0547 18.0234C52.3984 18.1016 51.7734 18.1406 51.1797 18.1406ZM62.5234 21.4688C61.4609 21.8594 60.2578 22.1328 58.9141 22.2891C57.5859 22.4297 56.5391 22.6016 55.7734 22.8047C55.0078 23.0078 54.3672 23.2578 53.8516 23.5547C52.6641 24.2422 52.0703 25.4219 52.0703 27.0938C52.0703 29.7812 53.6328 31.125 56.7578 31.125C59.4609 31.125 61.1719 29.8359 61.8906 27.2578C62.3125 25.7891 62.5234 23.8594 62.5234 21.4688Z" fill="#141414"/>
<path d="M80.3125 33L78.2969 33.0234C76.25 33.0234 74.9844 32.7109 74.5 32.0859C74.2812 31.8047 74.1719 31.4688 74.1719 31.0781C74.1719 30.6719 74.3281 30.3906 74.6406 30.2344C74.9531 30.0781 75.2969 29.9922 75.6719 29.9766C76.0625 29.9609 76.4141 29.8438 76.7266 29.625C77.0391 29.3906 77.1953 29.0234 77.1953 28.5234V16.9453C77.1953 15.5547 77.0234 14.6953 76.6797 14.3672C76.3516 14.0391 76.0703 13.8281 75.8359 13.7344C75.6172 13.6406 75.2656 13.5234 74.7812 13.3828C74.2969 13.2422 73.8984 13.1016 73.5859 12.9609C73.2891 12.8203 73.1406 12.6094 73.1406 12.3281C73.1406 11.0781 74.8203 10.4531 78.1797 10.4531C79.6016 10.4531 80.5 10.7031 80.875 11.2031C81.2656 11.6875 81.4609 12.8203 81.4609 14.6016C81.9922 13.2578 82.8672 12.2031 84.0859 11.4375C85.3203 10.6719 86.5781 10.2891 87.8594 10.2891C89.1562 10.2891 90.2188 10.5703 91.0469 11.1328C91.8906 11.6797 92.3125 12.3828 92.3125 13.2422C92.3125 14.0859 92.0391 14.7656 91.4922 15.2812C90.9453 15.7812 90.2734 16.0312 89.4766 16.0312C88.6797 16.0312 87.9922 15.8203 87.4141 15.3984C86.8516 14.9766 86.4844 14.4297 86.3125 13.7578C85.9062 13.6953 85.5703 13.6641 85.3047 13.6641C82.8672 13.6641 81.6484 16.4688 81.6484 22.0781V28.5234C81.6484 29.4297 82.1484 29.9141 83.1484 29.9766C84.1641 30.0234 84.6719 30.4219 84.6719 31.1719C84.6719 32.0312 84.2031 32.5625 83.2656 32.7656C82.5469 32.9219 81.5625 33 80.3125 33Z" fill="#141414"/>
<path d="M97.2578 3.58594C97.2578 2.89844 97.5859 2.25781 98.2422 1.66406C98.9141 1.05469 99.6406 0.75 100.422 0.75C101.219 0.75 101.984 0.992188 102.719 1.47656C103.469 1.96094 103.844 2.60156 103.844 3.39844C103.844 4.19531 103.531 4.86719 102.906 5.41406C102.281 5.94531 101.516 6.21094 100.609 6.21094C99.7031 6.21094 98.9141 5.96094 98.2422 5.46094C97.5859 4.96094 97.2578 4.33594 97.2578 3.58594ZM102.156 33L100.141 33.0234C98.0938 33.0234 96.8281 32.7109 96.3438 32.0859C96.125 31.8047 96.0156 31.4688 96.0156 31.0781C96.0156 30.6719 96.1719 30.3906 96.4844 30.2344C96.7969 30.0781 97.1406 29.9922 97.5156 29.9766C97.9062 29.9609 98.2578 29.8438 98.5703 29.625C98.8828 29.3906 99.0391 29.0234 99.0391 28.5234V15.9141C99.0391 14.4922 98.4844 13.7266 97.375 13.6172C97.2656 13.6016 97.125 13.5859 96.9531 13.5703C96.7812 13.5547 96.6562 13.5469 96.5781 13.5469C96.5 13.5312 96.3984 13.5156 96.2734 13.5C96.1641 13.4688 96.0781 13.4375 96.0156 13.4062C95.9688 13.375 95.9141 13.3359 95.8516 13.2891C95.7422 13.2109 95.6875 12.9922 95.6875 12.6328C95.6875 12.2578 95.9219 11.875 96.3906 11.4844C97.2812 10.7656 98.4688 10.4062 99.9531 10.4062C101.328 10.4062 102.133 10.4609 102.367 10.5703C102.617 10.6797 102.828 10.7969 103 10.9219C103.328 11.1406 103.492 11.5547 103.492 12.1641V28.5234C103.492 29.4297 103.992 29.9141 104.992 29.9766C106.008 30.0234 106.516 30.4219 106.516 31.1719C106.516 32.0312 106.047 32.5625 105.109 32.7656C104.391 32.9219 103.406 33 102.156 33Z" fill="#141414"/>
<path d="M114.273 18.1406C113.695 18.1406 113.039 17.9141 112.305 17.4609C111.586 16.9922 111.227 16.3906 111.227 15.6562C111.227 14.9062 111.438 14.2031 111.859 13.5469C112.281 12.8906 112.828 12.3594 113.5 11.9531C114.172 11.5312 114.953 11.1797 115.844 10.8984C117.469 10.3828 119.219 10.125 121.094 10.125C124.25 10.125 126.539 10.8281 127.961 12.2344C129.398 13.625 130.117 15.9297 130.117 19.1484L130.094 26.0625C130.094 27.7344 130.305 28.7812 130.727 29.2031C130.836 29.3125 131.18 29.4531 131.758 29.625C133.352 30.125 134.148 30.5078 134.148 30.7734C134.148 32.4141 132.469 33.2344 129.109 33.2344C127.844 33.2344 127.016 32.9531 126.625 32.3906C126.25 31.8281 126.047 30.8047 126.016 29.3203C125.312 30.5859 124.242 31.6094 122.805 32.3906C121.367 33.1719 119.828 33.5625 118.188 33.5625C116.547 33.5625 115.156 33.3516 114.016 32.9297C112.875 32.5078 111.945 31.8281 111.227 30.8906C110.523 29.9375 110.172 28.9141 110.172 27.8203C110.172 26.7266 110.297 25.8516 110.547 25.1953C110.797 24.5234 111.109 23.9609 111.484 23.5078C111.859 23.0547 112.367 22.6484 113.008 22.2891C113.664 21.9297 114.273 21.6484 114.836 21.4453C115.398 21.2266 116.125 21.0312 117.016 20.8594C118.328 20.6094 119.43 20.4375 120.32 20.3438C121.211 20.2344 121.672 20.1719 121.703 20.1562C121.797 20.1406 122.328 20.0859 123.297 19.9922C124.281 19.8828 125.055 19.6719 125.617 19.3594C125.617 16.3906 125.219 14.4531 124.422 13.5469C123.719 12.7656 122.562 12.375 120.953 12.375C119.344 12.375 118.133 12.7891 117.32 13.6172C116.523 14.4297 116.125 15.7266 116.125 17.5078L116.148 18.0234C115.492 18.1016 114.867 18.1406 114.273 18.1406ZM125.617 21.4688C124.555 21.8594 123.352 22.1328 122.008 22.2891C120.68 22.4297 119.633 22.6016 118.867 22.8047C118.102 23.0078 117.461 23.2578 116.945 23.5547C115.758 24.2422 115.164 25.4219 115.164 27.0938C115.164 29.7812 116.727 31.125 119.852 31.125C122.555 31.125 124.266 29.8359 124.984 27.2578C125.406 25.7891 125.617 23.8594 125.617 21.4688Z" fill="#141414"/>
<path d="M143.336 33L141.32 33.0234C139.273 33.0234 138.008 32.7109 137.523 32.0859C137.305 31.8047 137.195 31.4688 137.195 31.0781C137.195 30.6719 137.352 30.3906 137.664 30.2344C137.977 30.0781 138.32 29.9922 138.695 29.9766C139.086 29.9609 139.438 29.8438 139.75 29.625C140.062 29.3906 140.219 29.0234 140.219 28.5234V15.1406C140.219 14.2344 139.656 13.6875 138.531 13.5C137.75 13.375 137.273 13.2422 137.102 13.1016C136.945 12.9453 136.867 12.6797 136.867 12.3047C136.867 11.9141 137.141 11.5625 137.688 11.25C138.609 10.6875 139.766 10.4062 141.156 10.4062C142.562 10.4062 143.461 10.6094 143.852 11.0156C144.258 11.4062 144.461 12.2891 144.461 13.6641C146.602 11.2422 149.547 10.0312 153.297 10.0312C156.344 10.0312 158.5 10.8672 159.766 12.5391C161.047 14.1953 161.688 16.7109 161.688 20.0859V28.5234C161.688 29.4297 162.188 29.9141 163.188 29.9766C164.203 30.0234 164.711 30.4219 164.711 31.1719C164.711 32.0156 164.227 32.5469 163.258 32.7656C162.539 32.9219 161.547 33 160.281 33L158.266 33.0234C156.219 33.0234 154.953 32.7109 154.469 32.0859C154.25 31.8047 154.141 31.4688 154.141 31.0781C154.141 30.6719 154.297 30.3906 154.609 30.2344C154.922 30.0781 155.266 29.9922 155.641 29.9766C156.031 29.9609 156.383 29.8438 156.695 29.625C157.008 29.3906 157.164 29.0234 157.164 28.5234V21.7031C157.164 18.7969 156.828 16.6719 156.156 15.3281C155.406 13.8125 153.898 13.0547 151.633 13.0547C148.898 13.0547 147.039 13.7812 146.055 15.2344C145.133 16.6094 144.672 18.8047 144.672 21.8203V28.5234C144.672 29.4297 145.172 29.9141 146.172 29.9766C147.188 30.0234 147.695 30.4219 147.695 31.1719C147.695 32.0312 147.219 32.5625 146.266 32.7656C145.578 32.9219 144.602 33 143.336 33Z" fill="#141414"/>
<path d="M171.648 18.1406C171.07 18.1406 170.414 17.9141 169.68 17.4609C168.961 16.9922 168.602 16.3906 168.602 15.6562C168.602 14.9062 168.812 14.2031 169.234 13.5469C169.656 12.8906 170.203 12.3594 170.875 11.9531C171.547 11.5312 172.328 11.1797 173.219 10.8984C174.844 10.3828 176.594 10.125 178.469 10.125C181.625 10.125 183.914 10.8281 185.336 12.2344C186.773 13.625 187.492 15.9297 187.492 19.1484L187.469 26.0625C187.469 27.7344 187.68 28.7812 188.102 29.2031C188.211 29.3125 188.555 29.4531 189.133 29.625C190.727 30.125 191.523 30.5078 191.523 30.7734C191.523 32.4141 189.844 33.2344 186.484 33.2344C185.219 33.2344 184.391 32.9531 184 32.3906C183.625 31.8281 183.422 30.8047 183.391 29.3203C182.688 30.5859 181.617 31.6094 180.18 32.3906C178.742 33.1719 177.203 33.5625 175.562 33.5625C173.922 33.5625 172.531 33.3516 171.391 32.9297C170.25 32.5078 169.32 31.8281 168.602 30.8906C167.898 29.9375 167.547 28.9141 167.547 27.8203C167.547 26.7266 167.672 25.8516 167.922 25.1953C168.172 24.5234 168.484 23.9609 168.859 23.5078C169.234 23.0547 169.742 22.6484 170.383 22.2891C171.039 21.9297 171.648 21.6484 172.211 21.4453C172.773 21.2266 173.5 21.0312 174.391 20.8594C175.703 20.6094 176.805 20.4375 177.695 20.3438C178.586 20.2344 179.047 20.1719 179.078 20.1562C179.172 20.1406 179.703 20.0859 180.672 19.9922C181.656 19.8828 182.43 19.6719 182.992 19.3594C182.992 16.3906 182.594 14.4531 181.797 13.5469C181.094 12.7656 179.938 12.375 178.328 12.375C176.719 12.375 175.508 12.7891 174.695 13.6172C173.898 14.4297 173.5 15.7266 173.5 17.5078L173.523 18.0234C172.867 18.1016 172.242 18.1406 171.648 18.1406ZM182.992 21.4688C181.93 21.8594 180.727 22.1328 179.383 22.2891C178.055 22.4297 177.008 22.6016 176.242 22.8047C175.477 23.0078 174.836 23.2578 174.32 23.5547C173.133 24.2422 172.539 25.4219 172.539 27.0938C172.539 29.7812 174.102 31.125 177.227 31.125C179.93 31.125 181.641 29.8359 182.359 27.2578C182.781 25.7891 182.992 23.8594 182.992 21.4688Z" fill="#141414"/>
</svg>
